<?xml version="1.0" encoding="iso-8859-1"?>
<!-- Uploaded to: SVG Repo, www.svgrepo.com, Generator: SVG Repo Mixer Tools -->
<svg version="1.1" id="Capa_2" xmlns="http://www.w3.org/2000/svg" xmlns:xlink="http://www.w3.org/1999/xlink" x="0px" y="0px"
	 viewBox="0 0 320 320" style="enable-background:new 0 0 288 288;" xml:space="preserve">
<g>
	<g>
		<g>
			<g>
				<path style="fill:#010002;" d="M157.985,130.255c-15.24,0-27.641,12.406-27.641,27.647c0,15.246,12.401,27.647,27.641,27.647
					c15.246,0,27.647-12.401,27.647-27.647C185.632,142.662,173.231,130.255,157.985,130.255z"/>
			</g>
		</g>
		<g>
			<path style="fill:#010002;" d="M315.968,161.323c0.212-9.573-3.905-18.781-12.232-27.369c0-0.005,0-0.022,0-0.022
				c0-8.164-6.641-14.805-14.811-14.805c-1.382,0-2.752,0.19-4.079,0.582c-5.107-2.948-10.699-5.689-16.649-8.175
				c-3.965-1.653-8.463-3.307-13.658-5.026c11.112-40.244,7.049-69.897-11.313-81.662c-19.243-12.358-51.084-1.463-85.241,29.54
				C123.839,23.4,92.031,12.462,72.744,24.846c-11.683,7.484-17.699,22.295-17.47,42.92c-3.655,2.768-5.852,7.082-5.852,11.737
				c0,5.88,3.47,11.09,8.697,13.456c0.636,3.111,1.43,6.478,2.41,10.193c-38.073,11.531-60.058,30.122-60.52,51.328
				c-0.419,19.059,16.546,36.746,47.76,49.784c3.987,1.675,8.512,3.334,13.745,5.058c-1.474,5.26-2.611,9.937-3.465,14.234
				c-6.581,33.184-1.36,57.121,14.702,67.417c19.347,12.358,51.116,1.425,85.241-29.556c24.677,22.398,48.234,34.696,66.596,34.707
				c7.027,0,13.299-1.73,18.651-5.156c16.056-10.291,21.272-34.228,14.691-67.412c-0.647-3.258-1.485-6.848-2.54-10.867
				C293.494,201.148,315.506,182.547,315.968,161.323z M80.783,278.399c-10.225-6.549-13.26-25.972-8.11-51.949
				c0.756-3.802,1.779-8.017,3.117-12.804c14.185,3.786,29.697,6.636,46.216,8.474c8.18,10.519,16.638,20.222,25.188,28.914
				C119.656,275.827,93.739,286.688,80.783,278.399z M80.783,37.4c12.918-8.235,38.873,2.578,66.411,27.375
				c-8.186,8.316-16.279,17.541-24.09,27.484c-17.155,1.235-33.271,3.584-48.005,7.011c-0.68-2.665-1.305-5.325-1.876-8.05
				c3.606-2.763,5.803-7.087,5.803-11.716c0-5.896-3.525-11.15-8.724-13.505C70.307,55.436,72.304,42.833,80.783,37.4z
				 M80.147,199.386c2.834-8.202,6.211-16.6,10.084-25.069c3.726,6.625,7.647,13.157,11.71,19.494
				c2.458,3.845,5.031,7.696,7.772,11.629C99.222,203.83,89.322,201.806,80.147,199.386z M101.947,121.993
				c-4.085,6.38-7.995,12.88-11.661,19.396c-4.199-9.284-7.832-18.531-10.862-27.636c9.921-2.284,20.511-4.074,31.639-5.341
				C107.908,112.899,104.862,117.446,101.947,121.993z M98.384,157.853c5.031-9.616,10.448-18.955,16.121-27.815
				c4.906-7.658,10.389-15.485,16.306-23.306c9.344-0.522,18.754-0.68,28.294-0.462c8.996,0.196,18.036,0.707,26.869,1.539
				c5.608,7.468,10.818,14.93,15.496,22.224c5.668,8.855,11.09,18.21,16.116,27.821c-5.086,9.758-10.503,19.14-16.116,27.908
				c-4.933,7.696-10.405,15.523-16.301,23.301c-9.339,0.511-18.738,0.664-28.305,0.457c-8.974-0.185-18.003-0.702-26.869-1.534
				c-5.619-7.473-10.818-14.947-15.49-22.224C108.898,177.01,103.48,167.627,98.384,157.853z M204.903,207.392
				c3.16-4.509,6.222-9.051,9.121-13.581c4.068-6.353,7.995-12.885,11.71-19.504c4.253,9.344,7.93,18.618,10.949,27.707
				C226.724,204.319,216.08,206.119,204.903,207.392z M214.024,121.993c-2.486-3.883-5.058-7.734-7.778-11.634
				c10.421,1.599,20.288,3.617,29.463,6.032c-2.834,8.186-6.19,16.562-10.024,25.003
				C222.03,134.895,218.125,128.401,214.024,121.993z M240.066,102.125c-14.191-3.78-29.676-6.608-46.102-8.441
				c-8.18-10.519-16.633-20.222-25.188-28.903c27.538-24.797,53.515-35.61,66.416-27.375
				C247.354,45.199,249.122,69.256,240.066,102.125z M159.432,91.355c-2.877-0.06-5.744-0.092-8.583-0.092
				c-2.578,0-5.14,0.022-7.68,0.076c4.868-5.7,9.823-11.112,14.827-16.176c5.205,5.281,10.345,10.894,15.349,16.785
				C168.439,91.649,163.832,91.459,159.432,91.355z M64.732,117.642c4.215,12.76,9.883,26.287,16.861,40.293
				c-6.364,12.804-11.645,25.27-15.713,37.127c-4.71-1.556-8.773-3.062-12.368-4.558c-24.438-10.209-38.868-23.551-38.596-35.702
				C15.215,140.796,33.757,127.03,64.732,117.642z M156.549,224.444c5.477,0.114,10.916,0.125,16.263,0.016
				c-4.868,5.7-9.828,11.117-14.827,16.192c-5.189-5.26-10.329-10.873-15.354-16.796
				C147.602,224.155,152.149,224.346,156.549,224.444z M192.866,223.552c17.16-1.229,33.314-3.59,48.109-7.038
				c0.963,3.682,1.73,6.951,2.328,9.943c5.151,25.966,2.127,45.389-8.099,51.943c-12.945,8.289-38.884-2.589-66.422-27.358
				C176.957,242.735,185.039,233.516,192.866,223.552z M251.118,198.189c-4.27-12.961-9.888-26.472-16.747-40.265
				c6.342-12.722,11.64-25.199,15.752-37.165c4.737,1.572,8.724,3.04,12.33,4.542c4.237,1.779,8.251,3.688,11.982,5.695
				c-0.207,0.968-0.31,1.947-0.31,2.932c0,8.159,6.647,14.8,14.8,14.8c2.295,0,4.536-0.538,6.56-1.556
				c3.802,4.705,5.673,9.344,5.57,13.832C300.766,175.019,282.181,188.791,251.118,198.189z"/>
		</g>
	</g>
</g>
</svg>