<?xml version="1.0" encoding="utf-8"?>
<!-- Svg Vector Icons : http://www.onlinewebfonts.com/icon -->
<!DOCTYPE svg PUBLIC "-//W3C//DTD SVG 1.1//EN" "http://www.w3.org/Graphics/SVG/1.1/DTD/svg11.dtd">
<svg version="1.1" xmlns="http://www.w3.org/2000/svg" xmlns:xlink="http://www.w3.org/1999/xlink" width="100" height="100" x="0px" y="0px" viewBox="0 0 1000 1000" enable-background="new 0 0 1000 1000" xml:space="preserve">
<metadata> Svg Vector Icons : http://www.onlinewebfonts.com/icon </metadata>
<g><g transform = "translate(22.495, -97.437) rotate(13 50 50)"><g transform="translate(0.000000,512.000000) scale(0.100000,-0.100000)"><path d="M4635.2,5015.1c-254.7-24.9-463.5-53.6-622.5-86.2c-1095.6-220.3-1982.4-777.6-2493.8-1568.7c-143.7-220.3-216.4-369.7-293-599.5c-109.2-327.5-134.1-482.7-132.2-837c0-471.2,65.1-752.7,275.8-1177.9C1857.9-244.5,2974.6-953.1,4344-1140.8l166.6-23v-1808.1V-4780h488.4h488.4v1808.1v1808.1l168.6,23C6661.6-1002.9,7546.5-579.6,8134.5,44.8c383.1,408,635.9,884.9,737.4,1396.3c46,233.7,46,739.3,0,959.6c-80.4,371.6-208.8,683.8-411.8,988.3c-557.4,842.8-1547.6,1411.6-2765.8,1589.7C5504.7,5007.4,4794.1,5030.4,4635.2,5015.1z M5504.7,3772c766.2-109.2,1442.3-465.4,1815.8-957.7c118.8-157.1,245.2-423.3,285.4-597.6c23-105.3,28.7-201.1,23-365.8c-9.6-268.2-72.8-471.2-220.3-718.3c-113-189.6-409.9-496.1-622.5-641.6c-909.8-620.6-2229.5-699.1-3236.9-195.4c-275.8,137.9-459.7,270.1-676.1,488.4c-220.3,222.2-346.7,415.6-436.7,674.2c-80.4,229.8-95.8,553.5-36.4,785.3C2593.4,3009.7,3420.8,3616.9,4480,3772C4721.4,3806.5,5259.6,3806.5,5504.7,3772z"/><path d="M4271.3,2552c-80.4-46-84.3-67-86.2-471.2c0-386.9,0-388.8,47.9-434.8c51.7-51.7,151.3-63.2,203-23c67,51.7,74.7,103.4,74.7,473.1v367.8l-55.5,55.5C4395.8,2576.9,4334.5,2588.4,4271.3,2552z"/><path d="M5543,2519.4l-55.5-55.5v-367.8c0-369.7,7.6-421.4,74.7-473.1c51.7-40.2,151.3-28.7,203,23c47.9,46,47.9,47.9,47.9,434.8c-1.9,406-5.8,427.1-90,471.2C5656.1,2588.4,5602.4,2578.8,5543,2519.4z"/><path d="M3114.4-1382.2c-304.5-80.4-563.1-323.7-674.2-630.2c-59.4-162.8-59.4-469.3,0-632.1c82.4-227.9,260.5-436.7,461.6-544c199.2-107.3,277.7-116.8,884.9-116.8h551.6v572.7c0,649.3-11.5,718.3-149.4,932.8C3959.1-1445.4,3518.5-1273,3114.4-1382.2z"/><path d="M6485.4-2177c-266.2-34.5-578.4-252.8-706.7-492.2c-111.1-212.6-118.8-262.4-118.8-888.7v-570.8h532.5c400.3,0,559.3,7.7,651.2,28.7c496.1,116.8,825.5,591.9,754.6,1087.9C7519.7-2472,7033.2-2106.2,6485.4-2177z"/></g></g></g>
</svg>