<?xml version="1.0" encoding="utf-8"?>
<!-- Generator: Adobe Illustrator 22.1.0, SVG Export Plug-In . SVG Version: 6.00 Build 0)  -->
<svg version="1.1" id="m_pokemon" xmlns="http://www.w3.org/2000/svg" xmlns:xlink="http://www.w3.org/1999/xlink" width="100" height="100" x="0px" y="0px"
	 viewBox="0 0 1000 1000" enable-background="new 0 0 1000 1000" xml:space="preserve">
     <g><g transform = "translate(43.837, -89.879) rotate(26 50 50)">
<path d="M500,185.1c-173.7,0-314.9,141.3-314.9,314.9s141.3,315,314.9,315s314.9-141.3,314.9-315
	S673.7,185.1,500,185.1z M500,406.3c51.8,0,93.7,42,93.7,93.7s-42,93.7-93.7,93.7c-51.8,0-93.7-42-93.7-93.7c0,0,0,0,0,0
	C406.3,448.2,448.2,406.3,500,406.3L500,406.3z M500,774.4c-144.4,0-263.1-112.2-273.6-253.9h142c11.2,72.7,79.2,122.5,151.9,111.3
	c57.4-8.9,102.4-53.9,111.3-111.3h142C763.1,662.3,644.4,774.4,500,774.4L500,774.4z"/></g></g>
</svg>
