<?xml version="1.0" encoding="utf-8"?>
<!-- Generator: Adobe Illustrator 22.1.0, SVG Export Plug-In . SVG Version: 6.00 Build 0)  -->
<svg version="1.1" id="m_iceclimber" xmlns="http://www.w3.org/2000/svg" xmlns:xlink="http://www.w3.org/1999/xlink" width="100" height="100" x="0px"
	 y="0px" viewBox="0 0 1000 1000" enable-background="new 0 0 1000 1000" xml:space="preserve">
     <g><g transform = "translate(-228, 155) rotate(-26 50 50)">
<path d="M567.4,381.1c15.4-12.5,66.2-53.7,66.2-53.7s40.6,60.3,51.7,76.7c13.9-11,54.8-43.3,54.8-43.3
	s23.4,30.9,39,51.5c-7.2-53.2-17.8-113.1-27.5-126.6c-26.9-37.6-61.9-49.2-62.3-49.4l-16.1-5.2c0,0,26.5-39,37.9-55.7
	c-22.9-4.3-67.9-12.6-89-16.6c2.9,20.5,9.8,69.7,9.8,69.7l-11.8,2.3c-0.3,0.1-35.7,6.9-56.2,15c-65.8,26-88.4,77.7-96.1,108.6
	c21.7-12.6,61-35.5,61-35.5S557.6,365.1,567.4,381.1z"/>
<path d="M734.8,397.4c-13.5,10.6-56,44.2-56,44.2s-40.3-59.9-51.4-76.4c-15.1,12.2-67,54.3-67,54.3
	s-31.7-51.1-40.7-65.7c-4.9,2.8-14.9,8.7-26.3,15.3c-12.3,27.4-32.5,61.9-60.5,75.8c-7.6,3.8-19.3,7.9-32.8,12.7
	c-38.3,13.6-90.9,32.2-127.6,68.1c-37.5,36.6-83.7,124.3-19.6,220.5c44.9,67.4,139.3,103.7,240.4,92.7
	c105.1-11.5,190.7-71,223.5-155.4c33.6-86.5,32.9-206.5,29.3-271.5C740.9,405.5,736.9,400.2,734.8,397.4L734.8,397.4z M540.6,498.6
	c-0.4,0.6-0.8,1.1-1.2,1.7c-4.1-13.9-18.4-24.2-35.4-24.2c-20.2,0-36.6,14.4-36.6,32.2c0.1,7.7,3.1,15,8.4,20.6
	c-8.1,0.6-17.6-0.1-25.3-4.4c-7.1-4-11.6-10.3-13.8-19.6c-6.8-28.6,5.4-45.2,42-57.3c20.7-6.8,35.6-2.4,44.5,2.6
	c10.4,5.8,18.4,15.7,20.8,25.8C546.2,483.7,544.9,491.9,540.6,498.6L540.6,498.6z M667.7,526.2c-4.4,8.4-10.4,13.6-18.3,15.7
	c-10.3,2.8-21.9-0.1-30.3-3.4c7.2-5.8,11.6-13.9,11.6-22.8c0-17.9-17.9-32.4-39.9-32.4c-8.2-0.1-16.3,2.1-23.5,6.2
	c-0.5-5.7,0.7-11.4,3.5-16.3c4.9-9.3,15.2-17,26.8-20.1c9.8-2.6,25.4-3.4,43.7,8.1C673.7,481.5,681.4,500.4,667.7,526.2L667.7,526.2
	z"/></g></g>
</svg>
