<?xml version="1.0" encoding="utf-8"?>
<!-- Svg Vector Icons : http://www.onlinewebfonts.com/icon -->
<!DOCTYPE svg PUBLIC "-//W3C//DTD SVG 1.1//EN" "http://www.w3.org/Graphics/SVG/1.1/DTD/svg11.dtd">
<svg version="1.1" xmlns="http://www.w3.org/2000/svg" xmlns:xlink="http://www.w3.org/1999/xlink" width="100" height="100" x="0px" y="0px" viewBox="0 0 1000 1000" enable-background="new 0 0 1000 1000" xml:space="preserve">
<metadata> Svg Vector Icons : http://www.onlinewebfonts.com/icon </metadata>
<g><g transform = "translate(-22.495, 97.437) rotate(-13 50 50)"><g transform="translate(0.000000,452.000000) scale(0.100000,-0.100000)"><path d="M4597.1,3827.9c-99.8-15.4-189.9-36.5-197.6-44.1c-7.7-7.7-21.1-191.8-26.9-408.7l-11.5-395.2l180.3-44.1c249.4-61.4,663.8-61.4,890.2,0c82.5,23,159.2,48,165,55.6c7.7,7.7,9.6,189.9,1.9,406.7l-13.4,393.3l-115.1,24.9C5285.8,3854.7,4808.1,3862.4,4597.1,3827.9z"/><path d="M5915.1,3273.4c9.6-335.7,5.8-443.2-13.4-479.6c-28.8-51.8-143.9-107.4-347.2-161.2c-425.9-115.1-840.3-99.8-1285.4,48c-228.3,74.8-220.6,49.9-211,567.9l5.8,441.3l-44.1-13.4c-94-26.9-473.9-220.6-612-312.7c-702.2-468.1-1250.9-1216.3-1565.5-2143c-61.4-174.6-142-464.3-142-500.7c0-9.6,32.6,15.4,72.9,53.7c95.9,95.9,188,130.5,345.3,130.5c170.8,0,320.4-40.3,537.2-145.8c546.8-264.8,1335.3-942,2133.4-1830.3c99.8-111.3,186.1-203.4,191.9-207.2c7.7-1.9,115.1,109.4,241.7,249.4C5832.6-352.6,6504.1,257.5,6976.1,564.4C7332.9,794.7,7614.9,904,7850.9,904c166.9,0,251.3-34.5,381.8-155.4l84.4-76.7l-55.6,207.2C8098.4,1498.8,7839.4,2039.8,7471,2529c-268.6,358.8-679.1,725.2-1043.7,934.3c-128.5,74.8-485.4,241.7-516.1,241.7C5907.4,3705.1,5909.4,3511.3,5915.1,3273.4z M5414.4,2177.9c195.7-40.3,410.5-117,462.4-165c30.7-28.8,44.1-63.3,44.1-111.3c0-134.3-155.4-1521.4-174.6-1555.9c-9.6-19.2-34.5-44.1-55.6-55.6c-23-11.5-287.8-19.2-715.6-19.2h-679.2l-44.1,48c-42.2,44.1-49.9,95.9-128.5,826.9c-92.1,869.1-94,851.8,38.4,915.1c103.6,48,404.8,126.6,571.7,145.8C4909.8,2229.7,5234,2216.3,5414.4,2177.9z"/><path d="M4760.2,1880.5c-72.9-9.6-189.9-32.6-259-51.8c-124.7-34.5-124.7-34.5-120.9-99.8c7.7-111.3,101.7-1003.4,113.2-1068.6l9.6-63.3h485.4h485.4l49.9,485.4c28.8,264.8,57.6,535.3,63.3,600.5l13.4,117l-132.4,32.6C5199.5,1897.8,5005.7,1909.3,4760.2,1880.5z"/><path d="M1821,364.9c-115.1-117-214.9-226.4-226.4-243.6c-28.8-49.9-24.9-1051.4,5.8-1270.1c216.8-1531,974.6-2741.6,2077.8-3326.7c1381.3-730.9,2992.9-236,3954.1,1216.4c381.8,579.4,646.6,1289.3,754,2037.5c38.4,255.2,57.6,807.7,38.4,1091.7l-13.4,224.5L8179,338.1l-232.2,243.7l-134.3-7.7c-176.5-11.5-366.4-92.1-627.3-262.8C6976.1,175,6707.5-30.3,6544.4-176.1l-95.9-86.3l101.7,19.2c274.3,53.7,602.4-126.6,778.9-431.7c111.3-188,151.6-347.2,153.5-598.6c1.9-270.5-74.8-1037.9-115.1-1131.9c-40.3-95.9-140.1-203.4-228.3-241.7c-67.1-30.7-134.3-36.5-542.9-36.5c-353,0-481.6,5.8-529.5,26.9c-99.7,42.2-195.7,138.1-239.8,239.8c-36.5,88.2-40.3,134.3-44.1,600.5c-5.8,468.1-1.9,516.1,36.5,673.4c24.9,92.1,74.8,236,111.3,316.6l65.2,147.7l-201.4-211c-111.3-115.1-307-328.1-435.5-470c-126.6-142-249.4-268.6-270.5-282c-23-13.4-72.9-23-115.1-24.9c-84.4,0-84.4,0-466.2,422.1c-128.5,142-299.3,324.2-379.9,402.9L3979.3-698l42.2-86.3c143.9-285.8,172.7-464.3,172.7-1057.1c0-546.8-3.8-567.9-117-698.3c-118.9-134.3-159.2-143.9-667.6-143.9c-489.2,0-552.5,9.6-663.8,99.8c-122.8,101.7-145.8,174.6-195.7,629.3c-86.3,773.2-78.7,894.1,67.1,1199.1c174.6,360.7,500.7,569.8,803.9,514.2l107.4-19.2l-65.2,55.6c-638.9,541-1051.4,782.8-1333.4,782.8h-103.6L1821,364.9z M4865.7-2654.9l126.6-126.6l117,126.6c119,126.6,170.8,147.7,264.8,113.2c46.1-19.2,92.1-119,76.7-174.6c-15.3-63.3-345.3-418.2-412.5-447c-78.7-32.6-126.6-1.9-330,207.2c-170.7,174.6-188,201.4-188,264.8c0,97.8,59.5,161.1,151.6,161.1C4729.5-2530.2,4758.2-2549.3,4865.7-2654.9z M5872.9-3556.6c48-46,61.4-124.7,36.5-191.9c-32.6-82.5-78.7-86.3-938.2-86.3H4152l-55.6,55.6c-30.7,30.7-55.6,74.8-55.6,97.8c0,49.9,48,147.7,80.6,159.2c13.4,5.8,402.9,11.5,865.2,11.5l840.3,1.9L5872.9-3556.6z"/><path d="M898.2-130.1C504.9-368,376.3-475.4,261.2-653.8c-115.1-176.5-163.1-353-161.2-590.9c1.9-193.8,7.7-226.4,207.2-949.7c149.6-541,226.4-784.7,276.3-882.5c94-184.2,282-368.4,466.2-458.5c213-103.6,349.2-126.6,800-126.6c362.6,0,389.5,1.9,379.9,34.5c-5.8,17.3-36.5,130.5-69.1,249.4c-49.9,182.3-78.7,245.6-176.5,393.3c-157.3,239.8-379.9,704.1-473.9,982.3c-191.9,583.2-276.3,1241.3-237.9,1857.1c9.6,134.3,11.5,243.7,5.8,243.7S1101.5-5.4,898.2-130.1z"/><path d="M8769.9,17.7C8708.5-158.8,8626-527.2,8626-632.7c0-324.2-84.4-863.3-193.8-1229.8c-78.7-262.8-205.3-571.7-343.4-830.7c-88.2-168.8-130.5-280.1-209.1-566c-55.6-195.7-105.5-372.2-111.3-391.4c-9.6-34.6,3.8-36.5,418.2-25c466.2,11.5,569.8,28.8,761.7,126.6c211,105.5,397.1,299.3,496.9,512.2c24.9,53.7,136.2,429.7,249.4,834.6c199.5,723.3,203.4,740.5,205.3,947.7c1.9,232.2-23,330-130.5,537.2c-99.7,189.9-249.4,324.2-627.3,552.5C8956-51.4,8798.7,40.7,8791,40.7C8783.3,40.7,8773.7,29.2,8769.9,17.7z"/><path d="M3219.6-579c-78.7-24.9-222.6-149.6-284-245.6c-69.1-111.3-122.8-293.5-128.5-435.5c-1.9-71,17.3-326.1,44.1-567.9c59.5-558.3,40.3-529.5,333.8-529.5h216.8l-42.2,92.1c-86.3,182.3-119,422.1-88.3,638.9c57.6,420.1,270.5,658,487.3,546.8c67.1-36.5,65.2-17.3-5.8,132.4c-80.6,170.8-191.9,305.1-291.6,353C3369.2-550.2,3317.4-546.4,3219.6-579z"/><path d="M6557.8-573.3c-130.4-55.6-264.7-216.8-358.8-427.8l-48-109.4l57.6,28.8c147.7,76.7,282,7.7,393.3-205.3c136.2-259,140-709.9,9.6-978.4c-21.1-44.1-38.4-82.5-38.4-86.3c0-3.8,99.8-5.8,220.6-5.8c195.7,0,224.5,3.8,259,38.4c21.1,21.1,38.4,53.7,38.4,72.9c0,36.5,67.1,690.7,88.3,859.5c36.5,289.7-140,671.5-360.7,786.6C6747.8-563.7,6613.5-550.2,6557.8-573.3z"/></g></g></g>
</svg>