<?xml version="1.0" encoding="iso-8859-1"?>
<!-- Generator: Adobe Illustrator 19.0.0, SVG Export Plug-In . SVG Version: 6.00 Build 0)  -->
<svg version="1.1" id="Capa_1" xmlns="http://www.w3.org/2000/svg" xmlns:xlink="http://www.w3.org/1999/xlink" x="0px" y="0px"
	 viewBox="0 0 512.001 512.001" style="enable-background:new 0 0 512.001 512.001;" xml:space="preserve">
<g>
	<g>
		<path d="M510.605,201.464c-2.451-5.265-7.732-8.631-13.539-8.631H317.364v-11.812h52.778c8.247,0,14.934-6.686,14.934-14.934
			c0-32.129-26.139-58.268-58.268-58.268h-10.061c-4.21-29.763-29.841-52.735-60.748-52.735c-33.837,0-61.366,27.529-61.366,61.366
			v76.383H14.934c-5.807,0-11.088,3.366-13.539,8.631c-2.451,5.265-1.628,11.472,2.11,15.915
			c28.136,33.449,56.611,57.542,87.051,73.655c31.263,16.549,65.415,25.289,104.075,26.652v24.725
			c0,33.837,27.529,61.366,61.366,61.366s61.367-27.529,61.367-61.366v-24.726c38.66-1.363,72.813-10.103,104.077-26.652
			c30.442-16.113,58.917-40.205,87.052-73.653C512.233,212.936,513.056,206.729,510.605,201.464z M277.778,138.623
			c-6.003,6.004-13.89,9.006-21.777,9.006s-15.774-3.002-21.777-9.006c-5.832-5.831-5.832-15.287,0-21.119
			c5.831-5.831,15.287-5.831,21.119,0c0.363,0.361,0.953,0.361,1.316,0c5.831-5.831,15.287-5.831,21.119,0
			C283.61,123.335,283.61,132.791,277.778,138.623z"/>
	</g>
</g>
<g>
	<g>
		<path d="M313.299,413.349c-15.673,12.685-35.614,20.297-57.302,20.297c-21.686,0-41.624-7.61-57.297-20.294
			c-2.615,6.814-4.064,14.201-4.064,21.924v6.706c0,8.247,6.686,14.934,14.934,14.934h92.861c8.247,0,14.934-6.686,14.934-14.934
			v-6.706C317.364,427.552,315.916,420.164,313.299,413.349z"/>
	</g>
</g>
<g>
</g>
<g>
</g>
<g>
</g>
<g>
</g>
<g>
</g>
<g>
</g>
<g>
</g>
<g>
</g>
<g>
</g>
<g>
</g>
<g>
</g>
<g>
</g>
<g>
</g>
<g>
</g>
<g>
</g>
</svg>
